<?xml version="1.0" standalone="no"?>
<!DOCTYPE svg PUBLIC "-//W3C//DTD SVG 20010904//EN"
 "http://www.w3.org/TR/2001/REC-SVG-20010904/DTD/svg10.dtd">
<svg version="1.0" xmlns="http://www.w3.org/2000/svg"
 width="331.000000pt" height="233.000000pt" viewBox="0 0 331.000000 233.000000"
 preserveAspectRatio="xMidYMid meet">

<g transform="translate(0.000000,233.000000) scale(0.100000,-0.100000)"
fill="#ffffff" stroke="none">
<path d="M2654 2309 c-12 -13 -18 -33 -17 -60 2 -42 -11 -44 -27 -5 -9 21 -9
21 -9 0 -1 -11 8 -29 19 -39 11 -10 20 -27 20 -37 0 -30 27 -75 59 -97 34 -25
81 -28 81 -6 0 8 9 15 19 15 23 0 61 45 61 71 0 10 7 36 16 58 12 30 13 44 4
60 -11 22 -44 28 -55 11 -3 -5 -15 0 -26 11 l-21 21 -24 -23 c-13 -12 -29 -37
-36 -55 -6 -18 -18 -36 -27 -39 -40 -15 -61 76 -26 115 10 11 16 20 13 20 -3
0 -13 -9 -24 -21z m136 -79 c-19 -47 -4 -48 20 -1 20 41 46 53 56 28 5 -15
-19 -115 -36 -146 -16 -32 -46 -25 -95 20 -36 34 -43 44 -32 53 8 6 26 33 41
60 25 43 30 47 44 33 13 -13 13 -20 2 -47z m-20 -162 c0 -13 -29 -9 -55 8 -27
17 -49 48 -60 83 -6 20 4 14 54 -30 33 -29 61 -57 61 -61z"/>
<path d="M2601 2284 c0 -11 3 -14 6 -6 3 7 2 16 -1 19 -3 4 -6 -2 -5 -13z"/>
<path d="M340 1496 c-76 -42 -103 -53 -160 -70 -107 -31 -164 -89 -176 -179
-10 -73 17 -134 70 -158 78 -35 125 -24 247 59 134 90 179 91 283 3 33 -28 79
-59 102 -70 50 -24 145 -41 229 -41 33 0 70 -3 82 -6 20 -6 20 -8 7 -39 -24
-59 -47 -215 -40 -283 7 -81 47 -169 98 -218 22 -22 54 -71 73 -109 35 -76 85
-224 85 -255 0 -37 109 -120 158 -120 29 0 72 38 72 64 0 25 -20 46 -63 64
-53 23 -118 212 -73 212 19 0 80 -85 111 -154 16 -37 34 -60 54 -71 52 -26
141 -15 141 19 0 16 91 26 252 26 l116 0 12 -51 c7 -27 23 -63 37 -80 21 -25
32 -29 74 -29 40 0 55 5 74 25 14 13 25 30 25 38 0 20 -39 67 -55 67 -8 0 -19
9 -25 20 -10 19 -8 20 66 20 76 0 77 0 108 -36 30 -34 36 -37 89 -37 63 0 87
14 87 49 0 19 6 24 43 28 73 10 578 24 655 19 44 -3 78 -1 84 5 11 11 -36 20
-129 25 l-52 2 70 104 c128 192 163 300 120 369 -22 33 -47 40 -82 22 -10 -6
-19 -9 -19 -7 0 2 13 42 29 90 45 133 64 229 59 307 -3 60 -7 73 -33 100 -83
86 -150 -25 -199 -329 -9 -52 -17 -96 -19 -98 -3 -2 -7 15 -11 38 -9 56 -41
116 -67 124 -24 8 -61 -15 -91 -56 -54 -73 -33 -352 46 -619 l14 -48 -86 -6
c-268 -18 -346 -17 -397 1 -51 19 -115 86 -115 121 0 12 29 30 87 57 154 70
261 194 308 359 23 80 17 229 -14 307 -31 80 -87 169 -154 244 -87 97 -100 89
-72 -46 14 -64 14 -75 0 -102 -18 -37 -18 -37 0 -37 34 0 43 79 19 180 -9 39
87 -66 135 -148 59 -99 81 -176 81 -276 0 -242 -143 -413 -420 -505 -74 -24
-212 -52 -220 -44 -3 2 -5 28 -4 56 0 42 7 64 37 111 31 50 37 69 37 113 0 69
-19 105 -89 173 -66 64 -76 92 -50 150 l19 41 56 -7 c41 -5 55 -4 50 5 -4 6
-27 11 -52 11 l-44 0 20 39 c11 22 32 57 46 78 24 34 26 45 21 111 -4 69 -3
72 14 56 9 -8 27 -38 38 -65 22 -50 41 -64 41 -30 0 36 163 37 231 1 12 -7 20
-7 24 0 4 6 -7 16 -24 23 -17 6 -34 20 -37 30 -8 27 -64 87 -80 87 -8 0 4 -18
26 -40 42 -42 57 -79 17 -42 -29 28 -75 42 -102 31 -21 -8 -13 -12 20 -10 11
1 29 -5 40 -13 19 -15 18 -15 -20 -16 -22 0 -56 -3 -75 -6 -33 -5 -37 -3 -58
35 -21 38 -77 80 -89 67 -4 -3 1 -40 10 -81 15 -66 15 -80 3 -110 -12 -28 -23
-36 -68 -50 -72 -22 -243 -31 -305 -16 -26 7 -100 37 -163 66 -141 66 -191 79
-280 73 -65 -5 -99 -18 -172 -70 -13 -9 -37 -8 -111 6 -148 28 -183 49 -337
200 -74 74 -149 141 -166 149 -58 30 -104 31 -154 3z m146 -26 c23 -12 82 -63
135 -118 140 -146 182 -179 269 -206 41 -13 101 -27 133 -31 61 -8 64 -10 43
-37 -16 -21 -86 -24 -216 -7 -100 12 -167 40 -233 97 -62 54 -97 72 -142 72
-48 0 -88 -18 -184 -84 -87 -60 -129 -69 -181 -43 -65 33 -91 138 -51 204 25
39 88 77 165 97 32 8 68 23 80 34 52 48 113 55 182 22z m2750 -261 c50 -55 12
-294 -81 -513 -8 -17 -6 -17 23 -2 36 18 88 21 98 5 3 -6 6 -33 6 -60 0 -62
-63 -193 -155 -321 l-62 -88 -67 0 -66 0 -21 87 c-34 145 -61 333 -61 418 1
114 35 195 81 195 36 0 56 -56 84 -242 10 -64 22 -43 34 60 7 53 23 152 37
219 45 225 93 304 150 242z m-1690 -92 c77 -37 165 -72 195 -78 59 -11 214 -4
267 13 18 5 35 8 37 6 2 -1 -9 -21 -24 -43 -15 -22 -35 -60 -44 -84 -23 -57
-11 -97 46 -146 23 -21 54 -48 68 -61 51 -45 42 -150 -21 -244 -20 -29 -30
-58 -30 -81 0 -47 33 -151 64 -206 19 -33 21 -43 10 -43 -25 0 -15 -19 14 -26
44 -9 72 -23 72 -35 0 -8 -5 -8 -15 1 -9 7 -19 10 -23 6 -4 -4 1 -12 11 -17 9
-6 17 -17 17 -26 0 -15 -2 -15 -18 0 -27 24 -38 21 -16 -4 l19 -22 -43 6 c-57
7 -69 19 -88 86 -27 92 -68 172 -127 247 -30 38 -62 88 -71 109 -30 71 -61 90
-101 62 -16 -13 -15 -14 14 -9 40 6 56 -8 75 -64 8 -25 32 -67 51 -95 l37 -49
-84 0 c-115 0 -285 18 -392 41 -49 10 -91 21 -94 23 -2 3 7 20 21 38 33 44 41
73 26 100 -15 30 -60 78 -73 78 -5 0 4 -15 21 -33 16 -17 33 -40 36 -49 9 -25
-11 -76 -51 -127 -29 -39 -33 -51 -29 -87 2 -23 18 -70 36 -104 36 -73 35 -70
16 -70 -8 0 -15 -4 -15 -10 0 -5 20 -10 44 -10 25 0 48 -4 51 -10 4 -6 -1 -7
-12 -3 -17 6 -17 5 0 -14 19 -22 24 -44 5 -25 -7 7 -19 12 -27 12 -11 0 -10
-4 5 -15 18 -14 18 -14 -7 -15 -84 -1 -123 48 -173 212 -15 48 -41 118 -58
155 -27 59 -29 73 -21 106 9 31 8 35 -3 26 -8 -6 -14 -18 -14 -25 0 -42 -70
33 -109 116 -36 76 -34 190 3 307 39 122 107 202 198 235 97 34 161 23 324
-55z m754 -775 c0 -20 52 -98 79 -119 9 -7 25 -13 36 -13 27 0 65 -27 65 -46
0 -13 -2 -13 -16 1 -9 9 -19 13 -23 9 -3 -4 0 -9 7 -11 14 -5 17 -33 3 -33 -5
0 -11 7 -15 15 -3 8 -13 15 -23 15 -17 -1 -16 -2 1 -15 19 -14 19 -15 -6 -15
-43 0 -56 9 -102 74 -25 35 -61 77 -80 94 l-36 31 48 14 c63 20 62 20 62 -1z
m-830 -20 c34 -6 46 -12 48 -27 2 -11 10 -39 18 -62 12 -34 22 -45 47 -51 17
-4 33 -14 35 -22 4 -12 2 -13 -9 -2 -20 18 -33 15 -18 -5 11 -15 11 -16 -1 -5
-8 6 -21 12 -30 12 -12 -1 -11 -4 4 -15 18 -13 18 -15 3 -15 -47 0 -87 29
-108 77 -11 26 -31 61 -43 78 -39 52 -40 56 -14 50 12 -3 43 -9 68 -13z m716
-21 c29 -18 84 -79 84 -94 0 -4 -33 -7 -74 -7 l-74 0 -22 51 c-18 42 -19 53
-8 60 22 14 61 10 94 -10z m-411 -6 l170 -4 24 -41 c13 -23 21 -43 19 -46 -3
-2 -83 -7 -179 -10 -207 -7 -241 1 -258 62 -13 46 -6 58 28 49 14 -4 103 -9
196 -10z"/>
<path d="M2149 1067 c-7 -16 -7 -31 1 -51 9 -23 13 -26 25 -16 16 13 20 47 9
74 -9 23 -23 20 -35 -7z"/>
<path d="M2382 1068 c-15 -15 -16 -60 0 -76 25 -25 49 27 32 72 -7 19 -16 20
-32 4z"/>
<path d="M2393 953 c-22 -8 -14 -20 11 -16 13 3 45 -4 70 -16 55 -24 52 -9 -4
19 -39 20 -54 23 -77 13z"/>
<path d="M2062 931 c-8 -5 5 -8 32 -7 25 1 46 4 46 9 0 10 -62 9 -78 -2z"/>
<path d="M2390 913 c0 -2 12 -8 28 -14 15 -5 37 -24 50 -42 12 -17 22 -27 22
-20 0 21 -49 71 -75 75 -14 3 -25 3 -25 1z"/>
<path d="M2223 831 c2 -32 12 -71 22 -87 9 -16 13 -20 10 -9 -4 11 -10 50 -12
88 -3 37 -10 67 -16 67 -6 0 -8 -22 -4 -59z"/>
<path d="M645 179 c-151 -14 -138 -18 44 -13 95 2 181 9 190 14 20 12 -104 11
-234 -1z"/>
</g>
</svg>
